<svg version="1.1" id="Camada_1" xmlns="http://www.w3.org/2000/svg" x="0" y="0" viewBox="0 0 2000 344.9" style="enable-background:new 0 0 2000 344.9" xml:space="preserve"><style>.st0{fill-rule:evenodd;clip-rule:evenodd;fill:#272727}</style><path class="st0" d="M192.5 41.4H0v57.7h65.1v191h65.1v-191h62.2V41.4zM374.5 99.2h-60.7v102.1c0 34.1-19.3 42.9-32.6 42.9-19.2 0-29.6-8.9-29.6-34v-111h-59.2v114c0 50.3 14.8 81.4 68.1 81.4 20.7 0 44.4-11.8 54.8-31.1h1.5v26.6h57.7V99.2zM490 140.6c26.7 0 35.5 28.1 35.5 51.8 0 25.2-8.9 54.8-35.5 54.8s-35.5-22.2-35.5-54.8c0-39.9 19.2-51.8 35.5-51.8zm-93.3 204.3H456v-75.5c13.3 16.3 29.6 25.2 53.3 25.2 51.8 0 77-45.9 77-96.2 0-53.3-25.2-105.1-81.4-105.1-22.2 0-40 10.4-50.3 28.1H453V99.2h-56.3v245.7zm296.1-204.3c26.7 0 35.5 28.1 35.5 51.8 0 25.2-8.9 54.8-35.5 54.8-28.1 0-37-22.2-37-54.8 0-39.9 20.7-51.8 37-51.8zm-94.7 204.3h60.7v-75.5c11.8 16.3 29.6 25.2 51.8 25.2 51.8 0 77-45.9 77-96.2 0-53.3-23.7-105.1-81.4-105.1-20.7 0-38.5 10.4-50.3 28.1V99.2h-57.7l-.1 245.7zm260.5-170.2c3-23.7 17.8-38.5 38.5-38.5s35.5 17.8 35.5 38.5h-74zm134.7 35.5c3-65.1-31.1-117-96.2-117-53.3 0-97.7 42.9-97.7 100.7 0 63.7 40 100.7 99.2 100.7 41.4 0 79.9-19.3 91.8-62.2h-56.3c-5.9 13.3-20.7 20.7-34 20.7-25.2 0-40-17.8-41.4-42.9h134.6zm13.4 79.9h59.2v-91.8c0-23.7 14.8-44.4 44.4-44.4h17.8V97.7c-4.4-1.5-4.4-1.5-8.9-1.5-25.2 0-45.9 11.8-54.8 37v-34h-57.7v190.9zm423.4-190.9h-62.2l-29.6 122.9-26.7-122.9h-57.7l-25.2 122.9h-1.5l-29.6-122.9h-60.7l56.2 191h60.7l28.1-127.3h1.5l28.1 127.3h60.7l57.9-191zm48.8 136.2c0-16.3 11.9-22.2 25.2-25.2 13.3-3 28.1-4.4 37-10.4 1.5 40-8.9 56.3-37 56.3-13.3 0-25.2-5.9-25.2-20.7zm4.4-77c3-16.3 13.3-23.7 29.6-23.7 11.8 0 28.1 4.4 28.1 19.2 0 11.8-4.4 14.8-14.8 17.8-41.4 8.9-106.6 3-106.6 65.1 0 40 26.6 57.7 62.2 57.7 22.2 0 44.4-5.9 60.7-23.7V290h56.3V156.9c0-53.3-41.4-63.7-85.9-63.7-20.7 0-41.4 4.4-57.7 13.3-16.3 10.4-26.6 26.7-28.1 51.8l56.2.1zm319.8 16.3c4.4-23.7 17.8-38.5 40-38.5 19.3 0 34.1 17.8 35.5 38.5h-75.5zm134.7 35.5c3-65.1-29.6-117-94.7-117-54.8 0-99.2 42.9-99.2 100.7 0 63.7 40 100.7 100.7 100.7 40 0 80-19.3 90.3-62.2h-56.3c-5.9 13.3-19.3 20.7-34.1 20.7-25.2 0-40-17.8-41.4-42.9h134.7zM1621 290.1h59.2v-90.3c0-23.7 14.8-45.9 44.4-45.9h19.3V97.7c-5.9-1.5-5.9-1.5-10.4-1.5-25.2 0-45.9 11.8-54.8 37v-34H1621v190.9zm310.9-214.6h7.4V53.3h8.9l13.3 22.2h8.9l-14.8-23.7c7.4 0 13.3-4.4 13.3-13.3s-5.9-14.8-17.8-14.8h-19.3l.1 51.8zm7.4-44.4h10.4c5.9 0 10.4 0 10.4 7.4s-5.9 7.4-11.8 7.4h-8.9l-.1-14.8z"/><path d="M1900.8 48.8c0-26.6 22.2-48.8 48.9-48.8 28.1 0 50.3 22.2 50.3 48.8.2 27.6-21.9 50.1-49.5 50.3h-.8c-26.7.1-48.9-22.1-48.9-50.3zm48.9 44.5c23.7 0 42.9-20.7 42.9-44.4S1973.4 6 1949.7 6s-42.9 19.2-42.9 42.9 19.2 44.4 42.9 44.4z" style="fill-rule:evenodd;clip-rule:evenodd"/></svg>