<svg width="335" height="58" viewBox="0 0 335 58" fill="none" xmlns="http://www.w3.org/2000/svg">
<g clip-path="url(#clip0_710_14)">
<path fill-rule="evenodd" clip-rule="evenodd" d="M32.2438 6.96199H0V16.6651H10.9043V48.7845H21.8085V16.6651H32.227V6.96199H32.2438ZM62.7288 16.6819H52.5615V33.8515C52.5615 39.5859 49.3288 41.0658 47.101 41.0658C43.885 41.0658 42.143 39.5691 42.143 35.3482V16.6819H32.227V35.8527C32.227 44.3114 34.706 49.5413 43.6338 49.5413C47.101 49.5413 51.0708 47.5569 52.8127 44.3114H53.064V48.7845H62.7288V16.6819ZM82.075 23.6439C86.5472 23.6439 88.0213 28.3694 88.0213 32.3549C88.0213 36.5926 86.5305 41.5703 82.075 41.5703C77.6195 41.5703 76.1288 37.837 76.1288 32.3549C76.1288 25.6451 79.3447 23.6439 82.075 23.6439ZM66.4473 58H76.38V45.3035C78.6077 48.0446 81.338 49.5413 85.3077 49.5413C93.9843 49.5413 98.2053 41.8225 98.2053 33.3638C98.2053 24.4007 93.9843 15.6897 84.5707 15.6897C80.8522 15.6897 77.8708 17.4386 76.1455 20.4152H75.8775V16.6819H66.4473V58ZM116.044 23.6439C120.516 23.6439 121.99 28.3694 121.99 32.3549C121.99 36.5926 120.5 41.5703 116.044 41.5703C111.337 41.5703 109.847 37.837 109.847 32.3549C109.847 25.6451 113.314 23.6439 116.044 23.6439ZM100.182 58H110.349V45.3035C112.326 48.0446 115.307 49.5413 119.025 49.5413C127.702 49.5413 131.923 41.8225 131.923 33.3638C131.923 24.4007 127.953 15.6897 118.289 15.6897C114.821 15.6897 111.84 17.4386 109.863 20.4152V16.6819H100.199L100.182 58ZM143.816 29.3783C144.318 25.3928 146.797 22.904 150.264 22.904C153.732 22.904 156.21 25.8973 156.21 29.3783H143.816ZM166.378 35.3482C166.88 24.4007 161.169 15.6729 150.264 15.6729C141.337 15.6729 133.9 22.8872 133.9 32.6071C133.9 43.3192 140.6 49.5413 150.516 49.5413C157.45 49.5413 163.899 46.2957 165.892 39.0814H156.462C155.473 41.318 152.995 42.5625 150.767 42.5625C146.546 42.5625 144.067 39.5691 143.832 35.3482H166.378ZM168.622 48.7845H178.538V33.347C178.538 29.3615 181.017 25.8805 185.975 25.8805H188.957V16.4297C188.22 16.1774 188.22 16.1774 187.466 16.1774C183.245 16.1774 179.778 18.1618 178.287 22.3995V16.6819H168.622V48.7845ZM239.542 16.6819H229.123L224.165 37.3493L219.693 16.6819H210.028L205.807 37.3493H205.556L200.598 16.6819H190.431L199.844 48.8014H210.012L214.718 27.394H214.97L219.676 48.8014H229.843L239.542 16.6819ZM247.716 39.5859C247.716 36.8449 249.709 35.8527 251.937 35.3482C254.165 34.8437 256.643 34.6083 258.134 33.5993C258.385 40.3259 256.643 43.0669 251.937 43.0669C249.709 43.0669 247.716 42.0748 247.716 39.5859ZM248.453 26.6373C248.955 23.8962 250.681 22.6518 253.411 22.6518C255.387 22.6518 258.117 23.3917 258.117 25.8805C258.117 27.8649 257.38 28.3694 255.639 28.8738C248.704 30.3705 237.783 29.3783 237.783 39.8214C237.783 46.548 242.239 49.5245 248.202 49.5245C251.92 49.5245 255.639 48.5323 258.369 45.539V48.7677H267.799V26.385C267.799 17.4218 260.865 15.6729 253.411 15.6729C249.944 15.6729 246.476 16.4128 243.746 17.9095C241.016 19.6584 239.29 22.3995 239.039 26.6204L248.453 26.6373ZM302.019 29.3783C302.756 25.3928 305.001 22.904 308.719 22.904C311.952 22.904 314.431 25.8973 314.665 29.3783H302.019ZM324.582 35.3482C325.084 24.4007 319.624 15.6729 308.719 15.6729C299.54 15.6729 292.103 22.8872 292.103 32.6071C292.103 43.3192 298.803 49.5413 308.97 49.5413C315.671 49.5413 322.371 46.2957 324.096 39.0814H314.665C313.677 41.318 311.433 42.5625 308.954 42.5625C304.733 42.5625 302.254 39.5691 302.019 35.3482H324.582ZM271.518 48.7845H281.434V33.5993C281.434 29.6138 283.913 25.8805 288.871 25.8805H292.103V16.4297C291.115 16.1774 291.115 16.1774 290.361 16.1774C286.14 16.1774 282.673 18.1618 281.182 22.3995V16.6819H271.518V48.7845ZM323.593 12.6964H324.833V8.96315H326.323L328.551 12.6964H330.042L327.563 8.7109C328.802 8.7109 329.791 7.97098 329.791 6.47431C329.791 4.97765 328.802 3.98547 326.809 3.98547H323.577L323.593 12.6964ZM324.833 5.22989H326.575C327.563 5.22989 328.317 5.22989 328.317 6.47431C328.317 7.71873 327.329 7.71873 326.34 7.71873H324.85L324.833 5.22989Z" fill="white"/>
<path fill-rule="evenodd" clip-rule="evenodd" d="M318.384 8.20644C318.384 3.73326 322.102 0 326.575 0C331.281 0 335 3.73326 335 8.20644C335.033 12.8478 331.332 16.6315 326.709 16.6651H326.575C322.102 16.6819 318.384 12.9487 318.384 8.20644ZM326.575 15.6898C330.544 15.6898 333.76 12.2088 333.76 8.22325C333.76 4.23775 330.544 1.00899 326.575 1.00899C322.605 1.00899 319.389 4.23775 319.389 8.22325C319.389 12.2088 322.605 15.6898 326.575 15.6898Z" fill="white"/>
</g>
<defs>
<clipPath id="clip0_710_14">
<rect width="335" height="58" fill="white"/>
</clipPath>
</defs>
</svg>
