<svg width="82" height="82" viewBox="0 0 82 82" fill="none" xmlns="http://www.w3.org/2000/svg">
<path d="M69.1875 5.125H12.8125C10.7736 5.125 8.8183 5.93493 7.37662 7.37662C5.93493 8.8183 5.125 10.7736 5.125 12.8125L5.125 69.1875C5.125 71.2264 5.93493 73.1817 7.37662 74.6234C8.8183 76.0651 10.7736 76.875 12.8125 76.875H34.7939V52.4816H24.7041V41H34.7939V32.2491C34.7939 22.2954 40.7197 16.7972 49.7958 16.7972C54.1424 16.7972 58.6877 17.5723 58.6877 17.5723V27.3419H53.6796C48.7452 27.3419 47.2061 30.4041 47.2061 33.5447V41H58.2216L56.4599 52.4816H47.2061V76.875H69.1875C71.2264 76.875 73.1817 76.0651 74.6234 74.6234C76.0651 73.1817 76.875 71.2264 76.875 69.1875V12.8125C76.875 10.7736 76.0651 8.8183 74.6234 7.37662C73.1817 5.93493 71.2264 5.125 69.1875 5.125V5.125Z" fill="white"/>
</svg>
