<svg width="82" height="82" viewBox="0 0 82 82" fill="none" xmlns="http://www.w3.org/2000/svg">
<path d="M41.016 22.582C30.8301 22.582 22.614 30.798 22.614 40.9839C22.614 51.1699 30.8301 59.3859 41.016 59.3859C51.2019 59.3859 59.418 51.1699 59.418 40.9839C59.418 30.798 51.2019 22.582 41.016 22.582ZM41.016 52.9476C34.4336 52.9476 29.0523 47.5824 29.0523 40.9839C29.0523 34.3855 34.4176 29.0203 41.016 29.0203C47.6144 29.0203 52.9797 34.3855 52.9797 40.9839C52.9797 47.5824 47.5984 52.9476 41.016 52.9476V52.9476ZM64.4629 21.8292C64.4629 24.2156 62.541 26.1214 60.1707 26.1214C57.7844 26.1214 55.8785 24.1996 55.8785 21.8292C55.8785 19.4589 57.8004 17.5371 60.1707 17.5371C62.541 17.5371 64.4629 19.4589 64.4629 21.8292ZM76.6508 26.1855C76.3785 20.4359 75.0652 15.3429 70.8531 11.1468C66.657 6.95073 61.5641 5.63745 55.8144 5.34917C49.8887 5.01284 32.1273 5.01284 26.2016 5.34917C20.468 5.62144 15.375 6.93472 11.1629 11.1308C6.95077 15.3269 5.6535 20.4199 5.36522 26.1695C5.02889 32.0953 5.02889 49.8566 5.36522 55.7824C5.63749 61.532 6.95077 66.6249 11.1629 70.821C15.375 75.0171 20.4519 76.3304 26.2016 76.6187C32.1273 76.955 49.8887 76.955 55.8144 76.6187C61.5641 76.3464 66.657 75.0331 70.8531 70.821C75.0492 66.6249 76.3625 61.532 76.6508 55.7824C76.9871 49.8566 76.9871 32.1113 76.6508 26.1855V26.1855ZM68.9953 62.1406C67.7461 65.2796 65.3277 67.698 62.1726 68.9632C57.448 70.837 46.2371 70.4046 41.016 70.4046C35.7949 70.4046 24.568 70.821 19.8594 68.9632C16.7203 67.714 14.3019 65.2956 13.0367 62.1406C11.1629 57.416 11.5953 46.205 11.5953 40.9839C11.5953 35.7628 11.1789 24.5359 13.0367 19.8273C14.2859 16.6882 16.7043 14.2699 19.8594 13.0046C24.584 11.1308 35.7949 11.5632 41.016 11.5632C46.2371 11.5632 57.4641 11.1468 62.1726 13.0046C65.3117 14.2539 67.7301 16.6722 68.9953 19.8273C70.8691 24.5519 70.4367 35.7628 70.4367 40.9839C70.4367 46.205 70.8691 57.432 68.9953 62.1406Z" fill="white"/>
</svg>
