<svg width="83" height="83" viewBox="0 0 83 83" fill="none" xmlns="http://www.w3.org/2000/svg">
<g clip-path="url(#clip0_735_18)">
<path d="M41.808 58.3555H17.208V37.8555H9.00802V70.6555C9.00802 72.9233 10.8402 74.7555 13.108 74.7555H45.908C48.1758 74.7555 50.008 72.9233 50.008 70.6555V37.8555H41.808V58.3555ZM82.1161 27.3749L71.1871 10.9749C70.4183 9.83458 69.1371 9.15552 67.7661 9.15552H15.8499C14.479 9.15552 13.1977 9.83458 12.4418 10.9749L1.5127 27.3749C-0.306671 30.104 1.64083 33.7555 4.92083 33.7555H78.708C81.9752 33.7555 83.9227 30.104 82.1161 27.3749ZM66.408 72.7055C66.408 73.833 67.3305 74.7555 68.458 74.7555H72.558C73.6855 74.7555 74.608 73.833 74.608 72.7055V37.8555H66.408V72.7055Z" fill="white"/>
</g>
<defs>
<clipPath id="clip0_735_18">
<rect width="82" height="82" fill="white" transform="translate(0.808014 0.955566)"/>
</clipPath>
</defs>
</svg>
