<svg width="82" height="82" viewBox="0 0 82 82" fill="none" xmlns="http://www.w3.org/2000/svg">
<path d="M78.2495 22.2202C77.3553 18.8534 74.7208 16.2018 71.3757 15.3019C65.3125 13.6667 41 13.6667 41 13.6667C41 13.6667 16.6875 13.6667 10.6242 15.3019C7.27918 16.2019 4.64465 18.8534 3.75048 22.2202C2.12585 28.3228 2.12585 41.0553 2.12585 41.0553C2.12585 41.0553 2.12585 53.7878 3.75048 59.8904C4.64465 63.2572 7.27918 65.7984 10.6242 66.6983C16.6875 68.3334 41 68.3334 41 68.3334C41 68.3334 65.3124 68.3334 71.3757 66.6983C74.7208 65.7984 77.3553 63.2572 78.2495 59.8904C79.8741 53.7878 79.8741 41.0553 79.8741 41.0553C79.8741 41.0553 79.8741 28.3228 78.2495 22.2202V22.2202ZM33.0484 52.6155V29.4952L53.3689 41.0556L33.0484 52.6155V52.6155Z" fill="white"/>
</svg>
